<svg id="visual" viewBox="0 0 900 600" width="900" height="600" xmlns="http://www.w3.org/2000/svg" xmlns:xlink="http://www.w3.org/1999/xlink" version="1.1"><rect x="0" y="0" width="900" height="600" fill="#effaf3"></rect><defs><linearGradient id="grad1_0" x1="33.3%" y1="0%" x2="100%" y2="100%"><stop offset="20%" stop-color="#effaf3" stop-opacity="1"></stop><stop offset="80%" stop-color="#effaf3" stop-opacity="1"></stop></linearGradient></defs><defs><linearGradient id="grad2_0" x1="0%" y1="0%" x2="66.7%" y2="100%"><stop offset="20%" stop-color="#effaf3" stop-opacity="1"></stop><stop offset="80%" stop-color="#effaf3" stop-opacity="1"></stop></linearGradient></defs><g transform="translate(900, 0)"><path d="M0 351.5C-31 325.1 -62.1 298.6 -92.7 285.3C-123.4 272 -153.6 271.9 -191.6 263.7C-229.6 255.5 -275.3 239.2 -284.4 206.6C-293.5 174.1 -266 125.2 -271.1 88.1C-276.1 50.9 -313.8 25.5 -351.5 0L0 0Z" fill="#00d1b2"></path></g><g transform="translate(0, 600)"><path d="M0 -351.5C42 -356.7 83.9 -361.9 108.6 -334.3C133.4 -306.8 140.8 -246.5 154 -212C167.2 -177.4 186 -168.7 214.4 -155.8C242.8 -142.9 280.8 -125.8 305.3 -99.2C329.7 -72.5 340.6 -36.3 351.5 0L0 0Z" fill="#00d1b2"></path></g></svg>