<svg id="visual" viewBox="0 0 900 600" width="900" height="600" xmlns="http://www.w3.org/2000/svg" xmlns:xlink="http://www.w3.org/1999/xlink" version="1.1"><rect x="0" y="0" width="900" height="600" fill="#effaf3"></rect><defs><linearGradient id="grad1_0" x1="33.3%" y1="0%" x2="100%" y2="100%"><stop offset="20%" stop-color="#effaf3" stop-opacity="1"></stop><stop offset="80%" stop-color="#effaf3" stop-opacity="1"></stop></linearGradient></defs><defs><linearGradient id="grad2_0" x1="0%" y1="0%" x2="66.7%" y2="100%"><stop offset="20%" stop-color="#effaf3" stop-opacity="1"></stop><stop offset="80%" stop-color="#effaf3" stop-opacity="1"></stop></linearGradient></defs><g transform="translate(900, 0)"><path d="M0 351.5C-36.7 348.6 -73.4 345.6 -108.6 334.3C-143.9 323.1 -177.7 303.6 -198.7 273.4C-219.7 243.3 -227.9 202.6 -233.8 169.9C-239.7 137.1 -243.3 112.3 -262.5 85.3C-281.7 58.3 -316.6 29.1 -351.5 0L0 0Z" fill="#00d1b2"></path></g><g transform="translate(0, 600)"><path d="M0 -351.5C38.7 -351.7 77.4 -351.8 108.6 -334.3C139.9 -316.9 163.7 -281.9 183.4 -252.4C203.1 -222.9 218.7 -198.9 242.7 -176.3C266.7 -153.8 299.1 -132.7 318.6 -103.5C338.1 -74.4 344.8 -37.2 351.5 0L0 0Z" fill="#00d1b2"></path></g></svg>