<svg id="visual" viewBox="0 0 1920 1080" width="1920" height="1080" xmlns="http://www.w3.org/2000/svg" xmlns:xlink="http://www.w3.org/1999/xlink" version="1.1"><rect x="0" y="0" width="1920" height="1080" fill="#effaf3"></rect><path d="M0 735L45.7 731C91.3 727 182.7 719 274.2 712.7C365.7 706.3 457.3 701.7 548.8 713.3C640.3 725 731.7 753 823 761.5C914.3 770 1005.7 759 1097 737.5C1188.3 716 1279.7 684 1371.2 668.8C1462.7 653.7 1554.3 655.3 1645.8 669.7C1737.3 684 1828.7 711 1874.3 724.5L1920 738L1920 1081L1874.3 1081C1828.7 1081 1737.3 1081 1645.8 1081C1554.3 1081 1462.7 1081 1371.2 1081C1279.7 1081 1188.3 1081 1097 1081C1005.7 1081 914.3 1081 823 1081C731.7 1081 640.3 1081 548.8 1081C457.3 1081 365.7 1081 274.2 1081C182.7 1081 91.3 1081 45.7 1081L0 1081Z" fill="#effaf3"></path><path d="M0 748L45.7 741.5C91.3 735 182.7 722 274.2 724.7C365.7 727.3 457.3 745.7 548.8 764.2C640.3 782.7 731.7 801.3 823 804.8C914.3 808.3 1005.7 796.7 1097 791.3C1188.3 786 1279.7 787 1371.2 798.3C1462.7 809.7 1554.3 831.3 1645.8 824.3C1737.3 817.3 1828.7 781.7 1874.3 763.8L1920 746L1920 1081L1874.3 1081C1828.7 1081 1737.3 1081 1645.8 1081C1554.3 1081 1462.7 1081 1371.2 1081C1279.7 1081 1188.3 1081 1097 1081C1005.7 1081 914.3 1081 823 1081C731.7 1081 640.3 1081 548.8 1081C457.3 1081 365.7 1081 274.2 1081C182.7 1081 91.3 1081 45.7 1081L0 1081Z" fill="#cbf0dd"></path><path d="M0 799L45.7 812C91.3 825 182.7 851 274.2 857C365.7 863 457.3 849 548.8 850.3C640.3 851.7 731.7 868.3 823 882.2C914.3 896 1005.7 907 1097 903.2C1188.3 899.3 1279.7 880.7 1371.2 862C1462.7 843.3 1554.3 824.7 1645.8 824.5C1737.3 824.3 1828.7 842.7 1874.3 851.8L1920 861L1920 1081L1874.3 1081C1828.7 1081 1737.3 1081 1645.8 1081C1554.3 1081 1462.7 1081 1371.2 1081C1279.7 1081 1188.3 1081 1097 1081C1005.7 1081 914.3 1081 823 1081C731.7 1081 640.3 1081 548.8 1081C457.3 1081 365.7 1081 274.2 1081C182.7 1081 91.3 1081 45.7 1081L0 1081Z" fill="#a2e6cb"></path><path d="M0 948L45.7 944.7C91.3 941.3 182.7 934.7 274.2 922C365.7 909.3 457.3 890.7 548.8 891.5C640.3 892.3 731.7 912.7 823 912.7C914.3 912.7 1005.7 892.3 1097 883.7C1188.3 875 1279.7 878 1371.2 888.5C1462.7 899 1554.3 917 1645.8 919.8C1737.3 922.7 1828.7 910.3 1874.3 904.2L1920 898L1920 1081L1874.3 1081C1828.7 1081 1737.3 1081 1645.8 1081C1554.3 1081 1462.7 1081 1371.2 1081C1279.7 1081 1188.3 1081 1097 1081C1005.7 1081 914.3 1081 823 1081C731.7 1081 640.3 1081 548.8 1081C457.3 1081 365.7 1081 274.2 1081C182.7 1081 91.3 1081 45.7 1081L0 1081Z" fill="#70dcbd"></path><path d="M0 961L45.7 964.7C91.3 968.3 182.7 975.7 274.2 983C365.7 990.3 457.3 997.7 548.8 995.2C640.3 992.7 731.7 980.3 823 972.8C914.3 965.3 1005.7 962.7 1097 968.3C1188.3 974 1279.7 988 1371.2 995.3C1462.7 1002.7 1554.3 1003.3 1645.8 996.7C1737.3 990 1828.7 976 1874.3 969L1920 962L1920 1081L1874.3 1081C1828.7 1081 1737.3 1081 1645.8 1081C1554.3 1081 1462.7 1081 1371.2 1081C1279.7 1081 1188.3 1081 1097 1081C1005.7 1081 914.3 1081 823 1081C731.7 1081 640.3 1081 548.8 1081C457.3 1081 365.7 1081 274.2 1081C182.7 1081 91.3 1081 45.7 1081L0 1081Z" fill="#00d1b2"></path></svg>