<svg id="visual" viewBox="0 0 1920 1080" width="1920" height="1080" xmlns="http://www.w3.org/2000/svg" xmlns:xlink="http://www.w3.org/1999/xlink" version="1.1"><rect x="0" y="0" width="1920" height="1080" fill="#fafafa"></rect><defs><linearGradient id="grad1_0" x1="43.8%" y1="0%" x2="100%" y2="100%"><stop offset="14.444444444444446%" stop-color="#fafafa" stop-opacity="1"></stop><stop offset="85.55555555555554%" stop-color="#fafafa" stop-opacity="1"></stop></linearGradient></defs><defs><linearGradient id="grad2_0" x1="0%" y1="0%" x2="56.3%" y2="100%"><stop offset="14.444444444444446%" stop-color="#fafafa" stop-opacity="1"></stop><stop offset="85.55555555555554%" stop-color="#fafafa" stop-opacity="1"></stop></linearGradient></defs><g transform="translate(1920, 0)"><path d="M0 702C-55.4 643.2 -110.7 584.3 -185.4 570.6C-260.1 556.9 -354.1 588.4 -404.4 556.6C-454.7 524.8 -461.3 429.8 -504.8 366.8C-548.3 303.8 -628.6 272.7 -667.6 216.9C-706.6 161.1 -704.3 80.6 -702 0L0 0Z" fill="#00d1b2"></path></g><g transform="translate(0, 1080)"><path d="M0 -702C59.4 -638.9 118.8 -575.7 178 -547.8C237.1 -519.9 296 -527.2 375.6 -517C455.2 -506.7 555.5 -478.9 567.9 -412.6C580.4 -346.4 504.9 -241.7 512.6 -166.6C520.3 -91.4 611.2 -45.7 702 0L0 0Z" fill="#00d1b2"></path></g></svg>